# xmcd CD database file
#
# Track frame offsets:
#	150
#	46813
#	76412
#	104515
#	133162
#	155607
#	174900
#	201841
#	229826
#
# Disc length: 3673 seconds
#
# Revision: 0
# Processed by: cddbd v1.5.2PL0 Copyright (c) Steve Scherf et al.
# Submitted via: CDex 1.51
#
DISCID=720e5709
DTITLE=Margot Reisinger - Reiki - Healing Light
DYEAR=1900
DGENRE=New Age
TTITLE0=Reiki 1
TTITLE1=Reiki 2
TTITLE2=Reiki 3
TTITLE3=Reiki 4
TTITLE4=Reiki 5
TTITLE5=Reiki 6
TTITLE6=Reiki 7
TTITLE7=Reiki 8
TTITLE8=Reiki 9
EXTD=
EXTT0=
EXTT1=
EXTT2=
EXTT3=
EXTT4=
EXTT5=
EXTT6=
EXTT7=
EXTT8=
PLAYORDER=
